<svg width="45" height="47" viewBox="0 0 45 47" fill="none" xmlns="http://www.w3.org/2000/svg">
<path d="M43.6038 47.0001H28.8455C28.0788 47.0001 27.408 46.3292 27.408 45.5626V33.7751C27.408 31.2834 25.3955 29.3667 22.9997 29.3667C20.6038 29.3667 18.5913 31.3792 18.5913 33.7751V45.5626C18.5913 46.3292 17.9205 47.0001 17.1538 47.0001H2.39551C1.62884 47.0001 0.958008 46.3292 0.958008 45.5626V23.0417C0.958008 22.6584 1.14967 22.2751 1.34134 21.9876L21.9455 1.3834C22.5205 0.808398 23.4788 0.808398 23.958 1.3834L44.5622 21.9876C44.8497 22.2751 44.9455 22.6584 44.9455 23.0417V45.5626C45.0413 46.3292 44.3705 47.0001 43.6038 47.0001Z" fill="black"/>
</svg>
