<svg width="34" height="34" viewBox="0 0 34 34" fill="none" xmlns="http://www.w3.org/2000/svg">
<path d="M23.364 18.636C22.5282 17.8003 21.5361 17.1374 20.4441 16.6851C19.3522 16.2328 18.1819 16 17 16C15.8181 16 14.6478 16.2328 13.5558 16.6851C12.4639 17.1374 11.4718 17.8003 10.636 18.636L17 25L23.364 18.636Z" fill="black"/>
<path d="M27.6068 14.3934C26.2139 13.0005 24.5603 11.8956 22.7404 11.1418C20.9205 10.388 18.97 10 17.0002 10C15.0303 10 13.0798 10.388 11.2599 11.1418C9.44002 11.8956 7.78643 13.0005 6.39355 14.3934" stroke="black" stroke-width="4"/>
<path d="M32.557 8.44365C30.5141 6.40076 28.0889 4.78025 25.4197 3.67465C22.7506 2.56905 19.8898 2 17.0007 2C14.1116 2 11.2508 2.56905 8.58165 3.67465C5.91249 4.78026 3.48722 6.40077 1.44434 8.44366" stroke="black" stroke-width="4"/>
</svg>
